<svg width="223" height="241" viewBox="0 0 223 241" fill="none" xmlns="http://www.w3.org/2000/svg">
<path d="M176.637 16.6854H172.983V4.9365C172.983 2.21032 170.937 0 168.415 0H102.273C99.7505 0 97.7052 2.21032 97.7052 4.9365V16.6854H27.8636C14.1602 16.6854 0 24.5838 0 46.798V210.887C0 233.102 14.3886 241 27.8636 241H176.637C190.34 241 204.5 233.102 204.5 210.887V46.8474C204.546 32.2847 197.192 16.6854 176.637 16.6854ZM106.841 9.873H163.847V96.5086L138.267 73.307C136.566 71.7551 134.076 71.7551 132.375 73.307L106.795 96.5086L106.841 9.873ZM176.683 231.127H27.8636C20.8748 231.127 9.1356 228.511 9.1356 210.887V46.8474C9.1356 29.2241 20.8748 26.6077 27.8636 26.6077H97.7052V107.221C97.7013 109.947 99.7431 112.161 102.266 112.165C103.336 112.167 104.374 111.762 105.196 111.022L135.344 83.7231L165.491 111.022C167.43 112.767 170.31 112.483 171.925 110.388C172.61 109.499 172.984 108.378 172.983 107.221V26.5584H176.637C192.944 26.5584 195.365 39.2452 195.365 46.798L195.41 210.887C195.41 228.511 183.671 231.127 176.683 231.127Z" fill="#FB6A77"/>
<path d="M80.5303 60.5709H25.9908C23.4682 60.5709 21.423 62.7812 21.423 65.5074C21.423 68.2336 23.4682 70.4439 25.9908 70.4439H80.5303C83.0529 70.4439 85.0981 68.2336 85.0981 65.5074C85.0981 62.7812 83.0529 60.5709 80.5303 60.5709Z" fill="black"/>
<path d="M80.5303 94.2872H25.9908C23.4682 94.2872 21.423 96.4975 21.423 99.2237C21.423 101.95 23.4682 104.16 25.9908 104.16H80.5303C83.0529 104.16 85.0981 101.95 85.0981 99.2237C85.0981 96.4975 83.0529 94.2872 80.5303 94.2872Z" fill="black"/>
<path d="M170.425 128.003H25.9908C23.4682 128.003 21.423 130.214 21.423 132.94C21.423 135.666 23.4682 137.876 25.9908 137.876H170.425C172.947 137.876 174.992 135.666 174.992 132.94C174.992 130.214 172.947 128.003 170.425 128.003Z" fill="black"/>
<path d="M170.425 161.522H25.9908C23.4682 161.522 21.423 163.733 21.423 166.459C21.423 169.185 23.4682 171.395 25.9908 171.395H170.425C172.947 171.395 174.992 169.185 174.992 166.459C174.992 163.733 172.947 161.522 170.425 161.522Z" fill="black"/>
<path d="M170.425 195.485H25.9908C23.4682 195.485 21.423 197.696 21.423 200.422C21.423 203.148 23.4682 205.358 25.9908 205.358H170.425C172.947 205.358 174.992 203.148 174.992 200.422C174.992 197.696 172.947 195.485 170.425 195.485Z" fill="black"/>
</svg>
