<svg width="246" height="248" viewBox="0 0 246 248" fill="none" xmlns="http://www.w3.org/2000/svg">
<path d="M15.375 220.875C15.387 231.57 23.9845 240.238 34.5938 240.25H176.812C206.53 240.253 230.623 215.969 230.626 186.01C230.628 165.054 218.657 145.971 199.875 136.991V58.125C199.875 57.0972 199.47 56.1115 198.749 55.3849L152.624 8.88489C151.904 8.15833 150.926 7.75 149.906 7.75H34.5938C23.9845 7.76211 15.387 16.4295 15.375 27.125V220.875ZM222.938 186C222.938 211.681 202.286 232.5 176.812 232.5C151.339 232.5 130.688 211.681 130.688 186C130.688 160.319 151.339 139.5 176.812 139.5C202.275 139.529 222.909 160.331 222.938 186ZM153.75 20.9797L186.752 54.25H165.281C158.916 54.2427 153.757 49.0425 153.75 42.625V20.9797ZM23.0625 27.125C23.0697 20.708 28.2285 15.5073 34.5938 15.5H146.062V42.625C146.075 53.3205 154.672 61.9879 165.281 62H192.188V134.01C163.713 125.445 133.742 141.772 125.245 170.478C118.217 194.224 128.045 219.751 149.123 232.5H34.5938C28.2285 232.493 23.0697 227.292 23.0625 220.875V27.125Z" fill="#FB6A77"/>
<path d="M76.875 81.375C76.875 83.515 78.596 85.25 80.7188 85.25H172.969C175.091 85.25 176.812 83.515 176.812 81.375C176.812 79.235 175.091 77.5 172.969 77.5H80.7188C78.596 77.5 76.875 79.235 76.875 81.375Z" fill="black"/>
<path d="M42.2812 108.5H119.156C121.279 108.5 123 106.765 123 104.625C123 102.485 121.279 100.75 119.156 100.75H42.2812C40.1585 100.75 38.4375 102.485 38.4375 104.625C38.4375 106.765 40.1585 108.5 42.2812 108.5Z" fill="black"/>
<path d="M134.531 124H103.781C101.659 124 99.9375 125.735 99.9375 127.875C99.9375 130.015 101.659 131.75 103.781 131.75H134.531C136.654 131.75 138.375 130.015 138.375 127.875C138.375 125.735 136.654 124 134.531 124Z" fill="black"/>
<path d="M42.2812 155H111.469C113.591 155 115.312 153.265 115.312 151.125C115.312 148.985 113.591 147.25 111.469 147.25H42.2812C40.1585 147.25 38.4375 148.985 38.4375 151.125C38.4375 153.265 40.1585 155 42.2812 155Z" fill="black"/>
<path d="M42.2812 85.25H65.3438C67.4665 85.25 69.1875 83.515 69.1875 81.375C69.1875 79.235 67.4665 77.5 65.3438 77.5H42.2812C40.1585 77.5 38.4375 79.235 38.4375 81.375C38.4375 83.515 40.1585 85.25 42.2812 85.25Z" fill="black"/>
<path d="M172.969 100.75H134.531C132.409 100.75 130.688 102.485 130.688 104.625C130.688 106.765 132.409 108.5 134.531 108.5H172.969C175.091 108.5 176.812 106.765 176.812 104.625C176.812 102.485 175.091 100.75 172.969 100.75Z" fill="black"/>
<path d="M42.2812 131.75H88.4062C90.529 131.75 92.25 130.015 92.25 127.875C92.25 125.735 90.529 124 88.4062 124H42.2812C40.1585 124 38.4375 125.735 38.4375 127.875C38.4375 130.015 40.1585 131.75 42.2812 131.75Z" fill="black"/>
<path d="M103.781 193.75H88.4062C86.2835 193.75 84.5625 195.485 84.5625 197.625C84.5625 199.765 86.2835 201.5 88.4062 201.5H103.781C105.904 201.5 107.625 199.765 107.625 197.625C107.625 195.485 105.904 193.75 103.781 193.75Z" fill="black"/>
<path d="M42.2812 201.5H73.0312C75.154 201.5 76.875 199.765 76.875 197.625C76.875 195.485 75.154 193.75 73.0312 193.75H42.2812C40.1585 193.75 38.4375 195.485 38.4375 197.625C38.4375 199.765 40.1585 201.5 42.2812 201.5Z" fill="black"/>
<path d="M42.2812 178.25H65.3438C67.4665 178.25 69.1875 176.515 69.1875 174.375C69.1875 172.235 67.4665 170.5 65.3438 170.5H42.2812C40.1585 170.5 38.4375 172.235 38.4375 174.375C38.4375 176.515 40.1585 178.25 42.2812 178.25Z" fill="black"/>
<path d="M42.2812 62H88.4062C90.529 62 92.25 60.265 92.25 58.125C92.25 55.985 90.529 54.25 88.4062 54.25H42.2812C40.1585 54.25 38.4375 55.985 38.4375 58.125C38.4375 60.265 40.1585 62 42.2812 62Z" fill="black"/>
<path d="M103.781 170.5H80.7188C78.596 170.5 76.875 172.235 76.875 174.375C76.875 176.515 78.596 178.25 80.7188 178.25H103.781C105.904 178.25 107.625 176.515 107.625 174.375C107.625 172.235 105.904 170.5 103.781 170.5Z" fill="black"/>
<path d="M155.133 159.773C153.502 161.143 153.282 163.587 154.64 165.23C154.64 165.23 154.64 165.231 154.641 165.231C154.641 165.231 169.215 182.886 173.845 188.464C174.312 189.026 175.073 189.68 176.406 189.854C176.541 189.871 176.677 189.875 176.812 189.875H203.719C205.841 189.875 207.562 188.14 207.562 186C207.562 183.86 205.841 182.125 203.719 182.125H178.613L160.547 160.269C159.188 158.625 156.764 158.403 155.133 159.773V159.773Z" fill="black"/>
</svg>
