<svg width="248" height="231" viewBox="0 0 248 231" fill="none" xmlns="http://www.w3.org/2000/svg">
<g clip-path="url(#clip0)">
<path d="M204.279 56.8525C203.637 55.8162 202.579 55.06 201.338 54.7505L165.005 45.6828C165.497 44.3604 165.86 42.9874 166.09 41.5802C171.574 39.984 176.148 36.5821 179.038 31.9192C182.089 26.9973 182.899 21.2633 181.319 15.7734C178.06 4.44036 165.507 -2.30877 153.342 0.72719C145.52 2.67943 139.738 8.21038 137.468 14.9212C136.552 15.0511 135.642 15.2194 134.746 15.4432C128.263 17.0611 122.845 20.934 119.489 26.3481C118.072 28.6333 117.1 31.0787 116.574 33.5949L49.4962 16.8536C48.2543 16.5431 46.9329 16.706 45.8208 17.3043C44.7082 17.9025 43.8963 18.8879 43.5641 20.0438L0.165175 170.907C-0.167594 172.063 0.00678295 173.294 0.649069 174.33C1.29136 175.367 2.34924 176.123 3.59022 176.432L34.822 184.227V226.489C34.822 228.98 36.9906 231 39.6658 231H196.865C199.54 231 201.708 228.98 201.708 226.489V70.8971L204.764 60.276C205.096 59.1206 204.922 57.8889 204.279 56.8525V56.8525ZM155.849 9.44345C162.858 7.6974 170.085 11.582 171.962 18.1087C172.871 21.2706 172.405 24.5732 170.648 27.4074C168.891 30.2422 166.054 32.2698 162.659 33.1171C159.265 33.9635 155.719 33.5295 152.676 31.893C149.633 30.2562 147.456 27.6141 146.546 24.4522C144.669 17.9255 148.842 11.1927 155.849 9.44345V9.44345ZM127.878 30.8603C129.835 27.703 132.934 25.402 136.65 24.325C136.778 25.1457 136.953 25.9677 137.189 26.7875C138.768 32.2774 142.548 36.8659 147.832 39.7078C150.386 41.0812 153.145 41.9601 155.978 42.3432C154.425 46.9447 150.443 50.6457 145.246 51.9428C137.023 53.9943 128.539 49.4329 126.335 41.7733C125.268 38.0629 125.816 34.1873 127.878 30.8603V30.8603ZM51.6677 26.737L116.681 42.9635C116.77 43.3461 116.868 43.7278 116.978 44.1086C117.714 46.6686 118.884 49.0147 120.39 51.0996L115.314 55.8279C113.422 57.5897 113.422 60.4466 115.314 62.2089C116.26 63.0896 117.499 63.5304 118.739 63.5304C119.978 63.5304 121.218 63.0896 122.164 62.2089L127.251 57.4702C131.335 60.0207 136.199 61.459 141.256 61.459C143.402 61.459 145.583 61.2005 147.753 60.6591C152.547 59.4626 156.711 57.01 159.879 53.7453L194.152 62.2986L161.398 176.159L135.709 169.747C133.125 169.101 130.468 170.53 129.776 172.937L122.893 196.866L10.7765 168.884L51.6677 26.737ZM152.275 183.224L134.024 193.038L137.881 179.631L152.275 183.224ZM192.021 221.977H44.5096V186.645L125.064 206.75C125.477 206.853 125.898 206.904 126.318 206.904C127.161 206.904 127.997 206.699 128.74 206.299L167.245 185.592C168.358 184.994 169.17 184.009 169.502 182.853L192.02 104.573V221.977H192.021Z" fill="#FB6A77"/>
<path d="M59.9508 85.1087L155.646 108.993C156.066 109.098 156.488 109.148 156.903 109.148C159.042 109.148 160.999 107.819 161.579 105.803C162.271 103.396 160.738 100.922 158.154 100.277L62.4584 76.3929C59.8733 75.7472 57.2184 77.1761 56.5257 79.5831C55.8331 81.9897 57.3666 84.4639 59.9508 85.1087V85.1087Z" fill="black"/>
<path d="M54.9132 102.62L150.609 126.504C151.029 126.609 151.45 126.659 151.866 126.659C154.004 126.659 155.961 125.33 156.541 123.314C157.234 120.907 155.7 118.433 153.116 117.788L57.4209 93.9039C54.8372 93.2583 52.1804 94.6871 51.4882 97.0941C50.796 99.5007 52.3295 101.975 54.9132 102.62V102.62Z" fill="black"/>
<path d="M79.1712 118.1L52.3833 111.414C49.7991 110.769 47.1428 112.198 46.4507 114.605C45.758 117.011 47.2915 119.485 49.8757 120.13L76.6635 126.816C77.0835 126.92 77.5054 126.971 77.9205 126.971C80.059 126.971 82.0164 125.641 82.5962 123.625C83.2888 121.219 81.7553 118.745 79.1712 118.1V118.1Z" fill="black"/>
<path d="M98.9776 123.203H98.9742C96.299 123.203 94.1324 125.223 94.1324 127.715C94.1324 130.206 96.3024 132.226 98.9776 132.226C101.653 132.226 103.821 130.206 103.821 127.715C103.821 125.223 101.653 123.203 98.9776 123.203V123.203Z" fill="black"/>
</g>
<defs>
<clipPath id="clip0">
<rect width="248" height="231" fill="white"/>
</clipPath>
</defs>
</svg>
