<svg width="247" height="248" viewBox="0 0 247 248" fill="none" xmlns="http://www.w3.org/2000/svg">
<path d="M149.551 92.0312C146.888 92.0312 144.727 94.2013 144.727 96.875C144.727 99.5487 146.888 101.719 149.551 101.719C152.214 101.719 154.375 99.5487 154.375 96.875C154.375 94.2013 152.214 92.0312 149.551 92.0312Z" fill="black"/>
<path d="M241.347 214.926L176.953 150.272C187.443 134.407 192.969 116.034 192.969 96.875C192.969 43.4581 149.686 0 96.4844 0C43.2829 0 0 43.4581 0 96.875C0 150.292 43.2829 193.75 96.4844 193.75C115.567 193.75 133.865 188.201 149.666 177.67L167.465 195.541C167.467 195.543 167.47 195.546 167.473 195.548L214.059 242.324C217.705 245.984 222.55 248 227.703 248C232.856 248 237.701 245.984 241.345 242.325C244.992 238.667 247 233.802 247 228.625C247 223.448 244.992 218.583 241.347 214.926ZM147.397 167.462C147.397 167.462 147.397 167.462 147.396 167.462C132.505 178.322 114.901 184.062 96.4844 184.062C48.603 184.062 9.64844 144.95 9.64844 96.875C9.64844 48.7998 48.603 9.6875 96.4844 9.6875C144.366 9.6875 183.32 48.7998 183.32 96.875C183.32 115.366 177.603 133.042 166.787 147.994C161.375 155.479 154.852 162.029 147.397 167.462ZM157.518 171.853C162.512 167.752 167.076 163.169 171.16 158.156L184.847 171.898C180.684 176.831 176.118 181.416 171.205 185.595L157.518 171.853ZM234.524 235.474C232.701 237.305 230.278 238.312 227.703 238.312C225.128 238.312 222.706 237.305 220.882 235.474L178.046 192.463C182.931 188.254 187.495 183.672 191.687 178.767L234.525 221.778C236.348 223.606 237.352 226.037 237.352 228.625C237.352 231.213 236.348 233.644 234.524 235.474Z" fill="#FB6A77"/>
<path d="M96.4844 19.375C53.9227 19.375 19.2969 54.141 19.2969 96.875C19.2969 139.609 53.9227 174.375 96.4844 174.375C139.046 174.375 173.672 139.609 173.672 96.875C173.672 54.141 139.046 19.375 96.4844 19.375ZM96.4844 164.688C59.2433 164.688 28.9453 134.267 28.9453 96.875C28.9453 59.4832 59.2433 29.0625 96.4844 29.0625C133.725 29.0625 164.023 59.4832 164.023 96.875C164.023 134.267 133.725 164.688 96.4844 164.688Z" fill="black"/>
<path d="M150.547 76.0822C146.393 65.2264 139.16 55.9448 129.629 49.2416C119.872 42.378 108.41 38.75 96.4844 38.75C93.8204 38.75 91.6602 40.919 91.6602 43.5937C91.6602 46.2685 93.8204 48.4375 96.4844 48.4375C116.311 48.4375 134.418 60.9431 141.541 79.5571C142.278 81.483 144.106 82.6649 146.045 82.6649C146.62 82.6649 147.205 82.5607 147.774 82.3413C150.261 81.3818 151.503 78.5797 150.547 76.0822Z" fill="#FB6A77"/>
</svg>
